<?xml version="1.0" standalone="no"?><!DOCTYPE svg PUBLIC "-//W3C//DTD SVG 1.1//EN" "http://www.w3.org/Graphics/SVG/1.1/DTD/svg11.dtd"><svg t="1760682782839" class="icon" viewBox="0 0 1024 1024" version="1.1" xmlns="http://www.w3.org/2000/svg" p-id="4624" xmlns:xlink="http://www.w3.org/1999/xlink" width="64" height="64"><path d="M510.13065611 509.52509402m-503.03780781 0a503.0378078 503.0378078 0 1 0 1006.0756156 0 503.0378078 503.0378078 0 1 0-1006.0756156 0Z" fill="#333333" p-id="4625"></path><path d="M506.57626983 815.07066922m-88.12245067 0a88.12245068 88.12245068 0 1 0 176.24490137 0 88.12245068 88.12245068 0 1 0-176.24490137 0Z" fill="#FFFFFF" p-id="4626"></path><path d="M884.49968098 574.55719831c-24.93336146 0-45.15387002-20.22050852-45.15387-45.15387 0-183.48531781-149.2578945-332.76954115-332.76954115-332.76954111s-332.76954115 149.28422331-332.76954112 332.76954111c0 24.93336146-20.22050852 45.15387002-45.15387002 45.15387s-45.15387002-20.22050852-45.15387-45.15387c0-233.27305438 189.80422677-423.07728116 423.07728114-423.07728114s423.07728116 189.80422677 423.07728118 423.07728114c0 24.93336146-20.22050852 45.15387002-45.15387003 45.15387z" fill="#FFFFFF" p-id="4627"></path><path d="M510.13065611 814.01751773c-24.93336146 0-45.15387002-20.22050852-45.15387002-45.15387001V420.13886151c0-24.93336146 20.22050852-45.15387002 45.15387002-45.15387 24.93336146 0 45.15387002 20.22050852 45.15387 45.15387v348.72478621c0.02632879 24.93336146-20.19417974 45.15387002-45.15387 45.15387001z" fill="#FFFFFF" p-id="4628"></path></svg>