<?xml version="1.0" standalone="no"?><!DOCTYPE svg PUBLIC "-//W3C//DTD SVG 1.1//EN" "http://www.w3.org/Graphics/SVG/1.1/DTD/svg11.dtd"><svg t="1760599735872" class="icon" viewBox="0 0 1024 1024" version="1.1" xmlns="http://www.w3.org/2000/svg" p-id="5525" width="64" height="64" xmlns:xlink="http://www.w3.org/1999/xlink"><path d="M619.789474 548.109474V215.578947a107.789474 107.789474 0 1 0-215.578948 0v332.530527a210.189474 210.189474 0 0 0-102.4 170.846315 206.955789 206.955789 0 0 0 210.189474 202.105264 206.147368 206.147368 0 0 0 209.650526-202.105264A210.458947 210.458947 0 0 0 619.789474 548.109474z m-107.789474 319.056842a153.061053 153.061053 0 0 1-157.372632-148.210527 161.684211 161.684211 0 0 1 88.117895-131.772631 26.947368 26.947368 0 0 0 15.36-23.713684v-130.694737h43.11579a20.210526 20.210526 0 0 0 0-40.421053H458.105263v-43.654737h43.11579a20.210526 20.210526 0 0 0 0-40.421052H458.105263V264.623158h43.11579a20.210526 20.210526 0 0 0 0-40.421053H458.105263V215.578947a53.894737 53.894737 0 1 1 107.789474 0v347.890527a26.947368 26.947368 0 0 0 14.012631 23.713684 161.684211 161.684211 0 0 1 88.656843 131.772631 150.366316 150.366316 0 0 1-156.564211 148.210527z" fill="#2c2c2c" p-id="5526"></path><path d="M569.128421 761.532632a74.374737 74.374737 0 0 1-57.128421 25.330526 68.985263 68.985263 0 0 1-71.949474-65.212632 63.865263 63.865263 0 0 1 30.989474-53.894737 20.210526 20.210526 0 1 0-21.557895-34.223157 104.016842 104.016842 0 0 0-50.122105 87.848421A109.406316 109.406316 0 0 0 512 827.284211a114.795789 114.795789 0 0 0 87.848421-39.612632 20.210526 20.210526 0 0 0-30.72-26.138947z" fill="#2c2c2c" p-id="5527"></path></svg>