<?xml version="1.0" standalone="no"?><!DOCTYPE svg PUBLIC "-//W3C//DTD SVG 1.1//EN" "http://www.w3.org/Graphics/SVG/1.1/DTD/svg11.dtd"><svg t="1760683194785" class="icon" viewBox="0 0 1024 1024" version="1.1" xmlns="http://www.w3.org/2000/svg" p-id="8892" width="64" height="64" xmlns:xlink="http://www.w3.org/1999/xlink"><path d="M1003.946667 610.986667c5.546667-29.866667 8.96-61.013333 8.96-92.586667C1012.48 243.2 788.48 20.48 512 20.48S11.52 243.2 11.52 518.4c0 31.573333 2.986667 62.72 8.96 92.586667h983.466667z m-20.48 52.48H40.533333c-22.613333 0-40.533333 17.92-40.533333 40.106666s17.92 40.106667 40.533333 40.106667h942.933334c22.186667 0 40.533333-17.92 40.533333-40.106667s-17.92-40.106667-40.533333-40.106666z m-81.493334 129.706666H122.026667c-22.186667 0-40.533333 17.92-40.533334 40.106667s17.92 40.106667 40.533334 40.106667h779.946666c22.186667 0 40.533333-17.92 40.533334-40.106667s-17.92-40.106667-40.533334-40.106667z m-226.986666 129.706667H349.013333c-22.186667 0-40.533333 17.92-40.533333 40.106667s17.92 40.106667 40.533333 40.106666h325.973334c22.186667 0 40.533333-17.92 40.533333-40.106666 0-21.76-18.346667-40.106667-40.533333-40.106667z m0 0" p-id="8893"></path></svg>