<?xml version="1.0" standalone="no"?><!DOCTYPE svg PUBLIC "-//W3C//DTD SVG 1.1//EN" "http://www.w3.org/Graphics/SVG/1.1/DTD/svg11.dtd"><svg t="1760682738600" class="icon" viewBox="0 0 1024 1024" version="1.1" xmlns="http://www.w3.org/2000/svg" p-id="7248" xmlns:xlink="http://www.w3.org/1999/xlink" width="64" height="64"><path d="M904.8064 662.016V190.1056a119.7568 119.7568 0 0 0-119.6032-119.6032A119.6544 119.6544 0 0 0 665.6 190.1056v471.9104a173.4656 173.4656 0 0 0-53.2992 124.672 172.9536 172.9536 0 0 0 172.8 172.8 173.056 173.056 0 0 0 172.9024-172.8c0-47.2064-19.456-92.3136-53.248-124.672z m-119.6032 207.4624a82.8416 82.8416 0 0 1-48.2816-150.0672l18.688-13.5168V190.1056a29.696 29.696 0 0 1 59.1872 0v515.8912l18.688 13.5168a82.7904 82.7904 0 0 1-48.2816 150.016z m-165.2224-747.008a44.9536 44.9536 0 0 0-45.0048-44.9536H474.5216a44.9536 44.9536 0 1 0 0 89.9584h100.4544a45.0048 45.0048 0 0 0 45.056-44.9536z m-61.2864 115.3536h-2.9184a44.9536 44.9536 0 1 0 0 89.9584h2.9184a44.9536 44.9536 0 1 0 0-89.9584zM317.0304 235.776a45.7216 45.7216 0 0 0-65.3824 0.6144C188.3648 301.056 54.1696 453.1712 51.2 584.8064 47.4624 757.248 206.1312 819.2 284.0064 819.2c96.1024 0 228.9664-70.912 227.9936-244.224-0.7168-131.7376-131.9936-276.992-194.9696-339.2z m11.4176 510.1568c-10.9568 4.1984-23.8592-3.7888-28.672-18.3296-4.7616-14.5408 0-30.0544 11.008-34.304h0.512c55.3984-22.528 92.16-80.3328 101.7856-148.8896 0.9216-8.9088 5.7344-15.9744 12.9024-18.7904 10.9568-4.1984 23.8592 3.7376 28.672 18.3296 1.8944 5.632 2.3552 11.776 1.4336 16.896-12.4416 85.504-58.3168 157.3376-127.6416 185.088z" p-id="7249"></path></svg>